<?xml version="1.0" encoding="utf-8" standalone="no"?>
<!DOCTYPE svg PUBLIC "-//W3C//DTD SVG 1.1//EN"
  "http://www.w3.org/Graphics/SVG/1.1/DTD/svg11.dtd">
<svg xmlns:xlink="http://www.w3.org/1999/xlink" width="631.755781pt" height="342.515469pt" viewBox="0 0 631.755781 342.515469" xmlns="http://www.w3.org/2000/svg" version="1.1">
 <metadata>
  <rdf:RDF xmlns:dc="http://purl.org/dc/elements/1.1/" xmlns:cc="http://creativecommons.org/ns#" xmlns:rdf="http://www.w3.org/1999/02/22-rdf-syntax-ns#">
   <cc:Work>
    <dc:type rdf:resource="http://purl.org/dc/dcmitype/StillImage"/>
    <dc:date>2026-04-14T03:16:56.111507</dc:date>
    <dc:format>image/svg+xml</dc:format>
    <dc:creator>
     <cc:Agent>
      <dc:title>Matplotlib v3.10.8, https://matplotlib.org/</dc:title>
     </cc:Agent>
    </dc:creator>
   </cc:Work>
  </rdf:RDF>
 </metadata>
 <defs>
  <style type="text/css">*{stroke-linejoin: round; stroke-linecap: butt}</style>
 </defs>
 <g id="figure_1">
  <g id="patch_1">
   <path d="M 0 342.515469 
L 631.755781 342.515469 
L 631.755781 0 
L 0 0 
z
" style="fill: #f9f0cf"/>
  </g>
  <g id="axes_1">
   <g id="patch_2">
    <path d="M 92.060781 307.768594 
L 613.755781 307.768594 
L 613.755781 46.568594 
L 92.060781 46.568594 
z
" style="fill: #f9f0cf"/>
   </g>
   <g id="matplotlib.axis_1">
    <g id="xtick_1">
     <g id="line2d_1">
      <defs>
       <path id="mfe98336b02" d="M 0 0 
L 0 3.5 
" style="stroke: #5e527a; stroke-width: 0.8"/>
      </defs>
      <g>
       <use xlink:href="#mfe98336b02" x="128.276639" y="307.768594" style="fill: #5e527a; stroke: #5e527a; stroke-width: 0.8"/>
      </g>
     </g>
     <g id="text_1">
      <text style="font-size: 10px; font-family: 'JetBrains Mono', 'Berkeley Mono', 'IBM Plex Mono', 'DejaVu Sans Mono', 'Menlo', 'Monaco', 'Courier New', 'Bitstream Vera Sans Mono', 'Computer Modern Typewriter', 'Andale Mono', 'Nimbus Mono L', 'Courier', 'Fixed', 'Terminal', monospace; text-anchor: middle; fill: #5e527a" x="128.276639" y="322.420156" transform="rotate(-0 128.276639 322.420156)">technical</text>
     </g>
    </g>
    <g id="xtick_2">
     <g id="line2d_2">
      <g>
       <use xlink:href="#mfe98336b02" x="204.40402" y="307.768594" style="fill: #5e527a; stroke: #5e527a; stroke-width: 0.8"/>
      </g>
     </g>
     <g id="text_2">
      <text style="font-size: 10px; font-family: 'JetBrains Mono', 'Berkeley Mono', 'IBM Plex Mono', 'DejaVu Sans Mono', 'Menlo', 'Monaco', 'Courier New', 'Bitstream Vera Sans Mono', 'Computer Modern Typewriter', 'Andale Mono', 'Nimbus Mono L', 'Courier', 'Fixed', 'Terminal', monospace; text-anchor: middle; fill: #5e527a" x="204.40402" y="322.420156" transform="rotate(-0 204.40402 322.420156)">identity</text>
     </g>
    </g>
    <g id="xtick_3">
     <g id="line2d_3">
      <g>
       <use xlink:href="#mfe98336b02" x="280.531402" y="307.768594" style="fill: #5e527a; stroke: #5e527a; stroke-width: 0.8"/>
      </g>
     </g>
     <g id="text_3">
      <text style="font-size: 10px; font-family: 'JetBrains Mono', 'Berkeley Mono', 'IBM Plex Mono', 'DejaVu Sans Mono', 'Menlo', 'Monaco', 'Courier New', 'Bitstream Vera Sans Mono', 'Computer Modern Typewriter', 'Andale Mono', 'Nimbus Mono L', 'Courier', 'Fixed', 'Terminal', monospace; text-anchor: middle; fill: #5e527a" x="280.531402" y="322.420156" transform="rotate(-0 280.531402 322.420156)">lore</text>
     </g>
    </g>
    <g id="xtick_4">
     <g id="line2d_4">
      <g>
       <use xlink:href="#mfe98336b02" x="356.658783" y="307.768594" style="fill: #5e527a; stroke: #5e527a; stroke-width: 0.8"/>
      </g>
     </g>
     <g id="text_4">
      <text style="font-size: 10px; font-family: 'JetBrains Mono', 'Berkeley Mono', 'IBM Plex Mono', 'DejaVu Sans Mono', 'Menlo', 'Monaco', 'Courier New', 'Bitstream Vera Sans Mono', 'Computer Modern Typewriter', 'Andale Mono', 'Nimbus Mono L', 'Courier', 'Fixed', 'Terminal', monospace; text-anchor: middle; fill: #5e527a" x="356.658783" y="322.420156" transform="rotate(-0 356.658783 322.420156)">wisdom</text>
     </g>
    </g>
    <g id="xtick_5">
     <g id="line2d_5">
      <g>
       <use xlink:href="#mfe98336b02" x="432.786164" y="307.768594" style="fill: #5e527a; stroke: #5e527a; stroke-width: 0.8"/>
      </g>
     </g>
     <g id="text_5">
      <text style="font-size: 10px; font-family: 'JetBrains Mono', 'Berkeley Mono', 'IBM Plex Mono', 'DejaVu Sans Mono', 'Menlo', 'Monaco', 'Courier New', 'Bitstream Vera Sans Mono', 'Computer Modern Typewriter', 'Andale Mono', 'Nimbus Mono L', 'Courier', 'Fixed', 'Terminal', monospace; text-anchor: middle; fill: #5e527a" x="432.786164" y="322.367031" transform="rotate(-0 432.786164 322.367031)">routing</text>
     </g>
    </g>
    <g id="xtick_6">
     <g id="line2d_6">
      <g>
       <use xlink:href="#mfe98336b02" x="508.913545" y="307.768594" style="fill: #5e527a; stroke: #5e527a; stroke-width: 0.8"/>
      </g>
     </g>
     <g id="text_6">
      <text style="font-size: 10px; font-family: 'JetBrains Mono', 'Berkeley Mono', 'IBM Plex Mono', 'DejaVu Sans Mono', 'Menlo', 'Monaco', 'Courier New', 'Bitstream Vera Sans Mono', 'Computer Modern Typewriter', 'Andale Mono', 'Nimbus Mono L', 'Courier', 'Fixed', 'Terminal', monospace; text-anchor: middle; fill: #5e527a" x="508.913545" y="322.420156" transform="rotate(-0 508.913545 322.420156)">cross</text>
     </g>
    </g>
    <g id="xtick_7">
     <g id="line2d_7">
      <g>
       <use xlink:href="#mfe98336b02" x="585.040926" y="307.768594" style="fill: #5e527a; stroke: #5e527a; stroke-width: 0.8"/>
      </g>
     </g>
     <g id="text_7">
      <text style="font-size: 10px; font-family: 'JetBrains Mono', 'Berkeley Mono', 'IBM Plex Mono', 'DejaVu Sans Mono', 'Menlo', 'Monaco', 'Courier New', 'Bitstream Vera Sans Mono', 'Computer Modern Typewriter', 'Andale Mono', 'Nimbus Mono L', 'Courier', 'Fixed', 'Terminal', monospace; text-anchor: middle; fill: #5e527a" x="585.040926" y="322.367031" transform="rotate(-0 585.040926 322.367031)">negative</text>
     </g>
    </g>
   </g>
   <g id="matplotlib.axis_2">
    <g id="ytick_1">
     <g id="line2d_8">
      <path d="M 92.060781 277.630132 
L 613.755781 277.630132 
" clip-path="url(#p7c1899d72f)" style="fill: none; stroke: #2a2340; stroke-linecap: square"/>
     </g>
     <g id="line2d_9">
      <defs>
       <path id="m1e5ed2d366" d="M 0 0 
L -3.5 0 
" style="stroke: #5e527a; stroke-width: 0.8"/>
      </defs>
      <g>
       <use xlink:href="#m1e5ed2d366" x="92.060781" y="277.630132" style="fill: #5e527a; stroke: #5e527a; stroke-width: 0.8"/>
      </g>
     </g>
     <g id="text_8">
      <text style="font-size: 11px; font-family: 'JetBrains Mono', 'Berkeley Mono', 'IBM Plex Mono', 'DejaVu Sans Mono', 'Menlo', 'Monaco', 'Courier New', 'Bitstream Vera Sans Mono', 'Computer Modern Typewriter', 'Andale Mono', 'Nimbus Mono L', 'Courier', 'Fixed', 'Terminal', monospace; text-anchor: end; fill: #5e527a" x="85.060781" y="281.838492" transform="rotate(-0 85.060781 281.838492)">fail</text>
     </g>
    </g>
    <g id="ytick_2">
     <g id="line2d_10">
      <path d="M 92.060781 177.168594 
L 613.755781 177.168594 
" clip-path="url(#p7c1899d72f)" style="fill: none; stroke: #2a2340; stroke-linecap: square"/>
     </g>
     <g id="line2d_11">
      <g>
       <use xlink:href="#m1e5ed2d366" x="92.060781" y="177.168594" style="fill: #5e527a; stroke: #5e527a; stroke-width: 0.8"/>
      </g>
     </g>
     <g id="text_9">
      <text style="font-size: 11px; font-family: 'JetBrains Mono', 'Berkeley Mono', 'IBM Plex Mono', 'DejaVu Sans Mono', 'Menlo', 'Monaco', 'Courier New', 'Bitstream Vera Sans Mono', 'Computer Modern Typewriter', 'Andale Mono', 'Nimbus Mono L', 'Courier', 'Fixed', 'Terminal', monospace; text-anchor: end; fill: #5e527a" x="85.060781" y="181.376953" transform="rotate(-0 85.060781 181.376953)">partial</text>
     </g>
    </g>
    <g id="ytick_3">
     <g id="line2d_12">
      <path d="M 92.060781 76.707055 
L 613.755781 76.707055 
" clip-path="url(#p7c1899d72f)" style="fill: none; stroke: #2a2340; stroke-linecap: square"/>
     </g>
     <g id="line2d_13">
      <g>
       <use xlink:href="#m1e5ed2d366" x="92.060781" y="76.707055" style="fill: #5e527a; stroke: #5e527a; stroke-width: 0.8"/>
      </g>
     </g>
     <g id="text_10">
      <text style="font-size: 11px; font-family: 'JetBrains Mono', 'Berkeley Mono', 'IBM Plex Mono', 'DejaVu Sans Mono', 'Menlo', 'Monaco', 'Courier New', 'Bitstream Vera Sans Mono', 'Computer Modern Typewriter', 'Andale Mono', 'Nimbus Mono L', 'Courier', 'Fixed', 'Terminal', monospace; text-anchor: end; fill: #5e527a" x="85.060781" y="80.915415" transform="rotate(-0 85.060781 80.915415)">pass</text>
     </g>
    </g>
    <g id="text_11">
     <text style="font-size: 11px; font-family: 'JetBrains Mono', 'Berkeley Mono', 'IBM Plex Mono', 'DejaVu Sans Mono', 'Menlo', 'Monaco', 'Courier New', 'Bitstream Vera Sans Mono', 'Computer Modern Typewriter', 'Andale Mono', 'Nimbus Mono L', 'Courier', 'Fixed', 'Terminal', monospace; text-anchor: middle; fill: #5e527a" x="26.416719" y="177.168594" transform="rotate(-90 26.416719 177.168594)">cosmocache probe outcome</text>
    </g>
   </g>
   <g id="patch_3">
    <path d="M 92.060781 307.768594 
L 92.060781 46.568594 
" style="fill: none; stroke: #2a2340; stroke-opacity: 0.14; stroke-linejoin: miter; stroke-linecap: square"/>
   </g>
   <g id="patch_4">
    <path d="M 92.060781 307.768594 
L 613.755781 307.768594 
" style="fill: none; stroke: #2a2340; stroke-opacity: 0.14; stroke-linejoin: miter; stroke-linecap: square"/>
   </g>
   <g id="PathCollection_1">
    <defs>
     <path id="ma4452c5cdc" d="M 0 4.743416 
C 1.257969 4.743416 2.464584 4.24362 3.354102 3.354102 
C 4.24362 2.464584 4.743416 1.257969 4.743416 0 
C 4.743416 -1.257969 4.24362 -2.464584 3.354102 -3.354102 
C 2.464584 -4.24362 1.257969 -4.743416 0 -4.743416 
C -1.257969 -4.743416 -2.464584 -4.24362 -3.354102 -3.354102 
C -4.24362 -2.464584 -4.743416 -1.257969 -4.743416 0 
C -4.743416 1.257969 -4.24362 2.464584 -3.354102 3.354102 
C -2.464584 4.24362 -1.257969 4.743416 0 4.743416 
z
" style="stroke: #7b5cd6; stroke-width: 1.4"/>
    </defs>
    <g clip-path="url(#p7c1899d72f)">
     <use xlink:href="#ma4452c5cdc" x="119.907951" y="76.707055" style="fill: #7b5cd6; stroke: #7b5cd6; stroke-width: 1.4"/>
    </g>
   </g>
   <g id="PathCollection_2">
    <g clip-path="url(#p7c1899d72f)">
     <use xlink:href="#ma4452c5cdc" x="127.3646" y="76.707055" style="fill: #7b5cd6; stroke: #7b5cd6; stroke-width: 1.4"/>
    </g>
   </g>
   <g id="PathCollection_3">
    <g clip-path="url(#p7c1899d72f)">
     <use xlink:href="#ma4452c5cdc" x="115.77419" y="76.707055" style="fill: #7b5cd6; stroke: #7b5cd6; stroke-width: 1.4"/>
    </g>
   </g>
   <g id="PathCollection_4">
    <g clip-path="url(#p7c1899d72f)">
     <use xlink:href="#ma4452c5cdc" x="118.802146" y="76.707055" style="fill: #7b5cd6; stroke: #7b5cd6; stroke-width: 1.4"/>
    </g>
   </g>
   <g id="PathCollection_5">
    <g clip-path="url(#p7c1899d72f)">
     <use xlink:href="#ma4452c5cdc" x="133.293253" y="76.707055" style="fill: #7b5cd6; stroke: #7b5cd6; stroke-width: 1.4"/>
    </g>
   </g>
   <g id="PathCollection_6">
    <g clip-path="url(#p7c1899d72f)">
     <use xlink:href="#ma4452c5cdc" x="134.984556" y="76.707055" style="fill: #7b5cd6; stroke: #7b5cd6; stroke-width: 1.4"/>
    </g>
   </g>
   <g id="PathCollection_7">
    <defs>
     <path id="mff2cc2f365" d="M 0 4.743416 
C 1.257969 4.743416 2.464584 4.24362 3.354102 3.354102 
C 4.24362 2.464584 4.743416 1.257969 4.743416 0 
C 4.743416 -1.257969 4.24362 -2.464584 3.354102 -3.354102 
C 2.464584 -4.24362 1.257969 -4.743416 0 -4.743416 
C -1.257969 -4.743416 -2.464584 -4.24362 -3.354102 -3.354102 
C -4.24362 -2.464584 -4.743416 -1.257969 -4.743416 0 
C -4.743416 1.257969 -4.24362 2.464584 -3.354102 3.354102 
C -2.464584 4.24362 -1.257969 4.743416 0 4.743416 
z
" style="stroke: #ef7a6d; stroke-width: 1.4"/>
    </defs>
    <g clip-path="url(#p7c1899d72f)">
     <use xlink:href="#mff2cc2f365" x="217.216525" y="76.707055" style="fill: #ef7a6d; stroke: #ef7a6d; stroke-width: 1.4"/>
    </g>
   </g>
   <g id="PathCollection_8">
    <g clip-path="url(#p7c1899d72f)">
     <use xlink:href="#mff2cc2f365" x="199.630615" y="76.707055" style="fill: #ef7a6d; stroke: #ef7a6d; stroke-width: 1.4"/>
    </g>
   </g>
   <g id="PathCollection_9">
    <g clip-path="url(#p7c1899d72f)">
     <use xlink:href="#mff2cc2f365" x="200.853858" y="76.707055" style="fill: #ef7a6d; stroke: #ef7a6d; stroke-width: 1.4"/>
    </g>
   </g>
   <g id="PathCollection_10">
    <defs>
     <path id="m12d96b0668" d="M 0 4.743416 
C 1.257969 4.743416 2.464584 4.24362 3.354102 3.354102 
C 4.24362 2.464584 4.743416 1.257969 4.743416 0 
C 4.743416 -1.257969 4.24362 -2.464584 3.354102 -3.354102 
C 2.464584 -4.24362 1.257969 -4.743416 0 -4.743416 
C -1.257969 -4.743416 -2.464584 -4.24362 -3.354102 -3.354102 
C -4.24362 -2.464584 -4.743416 -1.257969 -4.743416 0 
C -4.743416 1.257969 -4.24362 2.464584 -3.354102 3.354102 
C -2.464584 4.24362 -1.257969 4.743416 0 4.743416 
z
" style="stroke: #e7b850; stroke-width: 1.4"/>
    </defs>
    <g clip-path="url(#p7c1899d72f)">
     <use xlink:href="#m12d96b0668" x="279.697053" y="76.707055" style="fill: #e7b850; stroke: #e7b850; stroke-width: 1.4"/>
    </g>
   </g>
   <g id="PathCollection_11">
    <g clip-path="url(#p7c1899d72f)">
     <use xlink:href="#m12d96b0668" x="272.021098" y="76.707055" style="fill: #e7b850; stroke: #e7b850; stroke-width: 1.4"/>
    </g>
   </g>
   <g id="PathCollection_12">
    <g clip-path="url(#p7c1899d72f)">
     <use xlink:href="#m12d96b0668" x="270.389083" y="76.707055" style="fill: #e7b850; stroke: #e7b850; stroke-width: 1.4"/>
    </g>
   </g>
   <g id="PathCollection_13">
    <defs>
     <path id="ma5e9c88a6d" d="M 0 4.743416 
C 1.257969 4.743416 2.464584 4.24362 3.354102 3.354102 
C 4.24362 2.464584 4.743416 1.257969 4.743416 0 
C 4.743416 -1.257969 4.24362 -2.464584 3.354102 -3.354102 
C 2.464584 -4.24362 1.257969 -4.743416 0 -4.743416 
C -1.257969 -4.743416 -2.464584 -4.24362 -3.354102 -3.354102 
C -4.24362 -2.464584 -4.743416 -1.257969 -4.743416 0 
C -4.743416 1.257969 -4.24362 2.464584 -3.354102 3.354102 
C -2.464584 4.24362 -1.257969 4.743416 0 4.743416 
z
" style="stroke: #7cae7a; stroke-width: 1.4"/>
    </defs>
    <g clip-path="url(#p7c1899d72f)">
     <use xlink:href="#ma5e9c88a6d" x="355.992955" y="76.707055" style="fill: #7cae7a; stroke: #7cae7a; stroke-width: 1.4"/>
    </g>
   </g>
   <g id="PathCollection_14">
    <g clip-path="url(#p7c1899d72f)">
     <use xlink:href="#ma5e9c88a6d" x="349.174499" y="76.707055" style="fill: #7cae7a; stroke: #7cae7a; stroke-width: 1.4"/>
    </g>
   </g>
   <g id="PathCollection_15">
    <g clip-path="url(#p7c1899d72f)">
     <use xlink:href="#ma5e9c88a6d" x="361.312681" y="76.707055" style="fill: #7cae7a; stroke: #7cae7a; stroke-width: 1.4"/>
    </g>
   </g>
   <g id="PathCollection_16">
    <defs>
     <path id="m98c9917860" d="M 0 4.743416 
C 1.257969 4.743416 2.464584 4.24362 3.354102 3.354102 
C 4.24362 2.464584 4.743416 1.257969 4.743416 0 
C 4.743416 -1.257969 4.24362 -2.464584 3.354102 -3.354102 
C 2.464584 -4.24362 1.257969 -4.743416 0 -4.743416 
C -1.257969 -4.743416 -2.464584 -4.24362 -3.354102 -3.354102 
C -4.24362 -2.464584 -4.743416 -1.257969 -4.743416 0 
C -4.743416 1.257969 -4.24362 2.464584 -3.354102 3.354102 
C -2.464584 4.24362 -1.257969 4.743416 0 4.743416 
z
" style="stroke: #4a7ba8; stroke-width: 1.4"/>
    </defs>
    <g clip-path="url(#p7c1899d72f)">
     <use xlink:href="#m98c9917860" x="431.063758" y="76.707055" style="fill: #4a7ba8; stroke: #4a7ba8; stroke-width: 1.4"/>
    </g>
   </g>
   <g id="PathCollection_17">
    <g clip-path="url(#p7c1899d72f)">
     <use xlink:href="#m98c9917860" x="441.903495" y="76.707055" style="fill: #4a7ba8; stroke: #4a7ba8; stroke-width: 1.4"/>
    </g>
   </g>
   <g id="PathCollection_18">
    <g clip-path="url(#p7c1899d72f)">
     <use xlink:href="#m98c9917860" x="438.274601" y="76.707055" style="fill: #4a7ba8; stroke: #4a7ba8; stroke-width: 1.4"/>
    </g>
   </g>
   <g id="PathCollection_19">
    <defs>
     <path id="m95c6c826fd" d="M 0 4.743416 
C 1.257969 4.743416 2.464584 4.24362 3.354102 3.354102 
C 4.24362 2.464584 4.743416 1.257969 4.743416 0 
C 4.743416 -1.257969 4.24362 -2.464584 3.354102 -3.354102 
C 2.464584 -4.24362 1.257969 -4.743416 0 -4.743416 
C -1.257969 -4.743416 -2.464584 -4.24362 -3.354102 -3.354102 
C -4.24362 -2.464584 -4.743416 -1.257969 -4.743416 0 
C -4.743416 1.257969 -4.24362 2.464584 -3.354102 3.354102 
C -2.464584 4.24362 -1.257969 4.743416 0 4.743416 
z
" style="stroke: #a04a7b; stroke-width: 1.4"/>
    </defs>
    <g clip-path="url(#p7c1899d72f)">
     <use xlink:href="#m95c6c826fd" x="503.771292" y="76.707055" style="fill: #a04a7b; stroke: #a04a7b; stroke-width: 1.4"/>
    </g>
   </g>
   <g id="PathCollection_20">
    <g clip-path="url(#p7c1899d72f)">
     <use xlink:href="#m95c6c826fd" x="518.01941" y="76.707055" style="fill: #a04a7b; stroke: #a04a7b; stroke-width: 1.4"/>
    </g>
   </g>
   <g id="PathCollection_21">
    <g clip-path="url(#p7c1899d72f)">
     <use xlink:href="#m95c6c826fd" x="517.265874" y="76.707055" style="fill: #a04a7b; stroke: #a04a7b; stroke-width: 1.4"/>
    </g>
   </g>
   <g id="PathCollection_22">
    <defs>
     <path id="m5ed839bc14" d="M -0 6.708204 
L 6.708204 0 
L 0 -6.708204 
L -6.708204 -0 
z
" style="stroke: #a04a7b; stroke-width: 1.4"/>
    </defs>
    <g clip-path="url(#p7c1899d72f)">
     <use xlink:href="#m5ed839bc14" x="505.829794" y="177.168594" style="fill: #e7b850; stroke: #a04a7b; stroke-width: 1.4"/>
    </g>
   </g>
   <g id="PathCollection_23">
    <defs>
     <path id="mfa6d1651e5" d="M 0 4.743416 
C 1.257969 4.743416 2.464584 4.24362 3.354102 3.354102 
C 4.24362 2.464584 4.743416 1.257969 4.743416 0 
C 4.743416 -1.257969 4.24362 -2.464584 3.354102 -3.354102 
C 2.464584 -4.24362 1.257969 -4.743416 0 -4.743416 
C -1.257969 -4.743416 -2.464584 -4.24362 -3.354102 -3.354102 
C -4.24362 -2.464584 -4.743416 -1.257969 -4.743416 0 
C -4.743416 1.257969 -4.24362 2.464584 -3.354102 3.354102 
C -2.464584 4.24362 -1.257969 4.743416 0 4.743416 
z
" style="stroke: #8a80a3; stroke-width: 1.4"/>
    </defs>
    <g clip-path="url(#p7c1899d72f)">
     <use xlink:href="#mfa6d1651e5" x="579.239877" y="76.707055" style="fill: #8a80a3; stroke: #8a80a3; stroke-width: 1.4"/>
    </g>
   </g>
   <g id="PathCollection_24">
    <g clip-path="url(#p7c1899d72f)">
     <use xlink:href="#mfa6d1651e5" x="590.042372" y="76.707055" style="fill: #8a80a3; stroke: #8a80a3; stroke-width: 1.4"/>
    </g>
   </g>
   <g id="PathCollection_25">
    <g clip-path="url(#p7c1899d72f)">
     <use xlink:href="#mfa6d1651e5" x="575.168034" y="76.707055" style="fill: #8a80a3; stroke: #8a80a3; stroke-width: 1.4"/>
    </g>
   </g>
   <g id="text_12">
    <text style="font-weight: 700; font-size: 13px; font-family: 'JetBrains Mono', 'Berkeley Mono', 'IBM Plex Mono', 'DejaVu Sans Mono', 'Menlo', 'Monaco', 'Courier New', 'Bitstream Vera Sans Mono', 'Computer Modern Typewriter', 'Andale Mono', 'Nimbus Mono L', 'Courier', 'Fixed', 'Terminal', monospace; text-anchor: start; fill: #2a2340" x="92.060781" y="28.568594" transform="rotate(-0 92.060781 28.568594)">Figure 4. Per-probe outcomes, cosmocache at 100-planet tier</text>
   </g>
   <g id="legend_1">
    <g id="line2d_14">
     <path d="M 542.613594 263.726406 
L 548.613594 263.726406 
L 554.613594 263.726406 
" style="fill: none; stroke: #000000; stroke-opacity: 0; stroke-width: 1.5; stroke-linecap: square"/>
     <defs>
      <path id="mbc17ba1ab9" d="M 0 4.5 
C 1.193414 4.5 2.338109 4.025852 3.181981 3.181981 
C 4.025852 2.338109 4.5 1.193414 4.5 0 
C 4.5 -1.193414 4.025852 -2.338109 3.181981 -3.181981 
C 2.338109 -4.025852 1.193414 -4.5 0 -4.5 
C -1.193414 -4.5 -2.338109 -4.025852 -3.181981 -3.181981 
C -4.025852 -2.338109 -4.5 -1.193414 -4.5 0 
C -4.5 1.193414 -4.025852 2.338109 -3.181981 3.181981 
C -2.338109 4.025852 -1.193414 4.5 0 4.5 
z
" style="stroke: #5e527a"/>
     </defs>
     <g>
      <use xlink:href="#mbc17ba1ab9" x="548.613594" y="263.726406" style="fill: #5e527a; stroke: #5e527a"/>
     </g>
    </g>
    <g id="text_13">
     <text style="font-size: 10px; font-family: 'JetBrains Mono', 'Berkeley Mono', 'IBM Plex Mono', 'DejaVu Sans Mono', 'Menlo', 'Monaco', 'Courier New', 'Bitstream Vera Sans Mono', 'Computer Modern Typewriter', 'Andale Mono', 'Nimbus Mono L', 'Courier', 'Fixed', 'Terminal', monospace; text-anchor: start; fill: #2a2340" x="562.613594" y="267.226406" transform="rotate(-0 562.613594 267.226406)">pass</text>
    </g>
    <g id="line2d_15">
     <path d="M 542.613594 278.457656 
L 548.613594 278.457656 
L 554.613594 278.457656 
" style="fill: none; stroke: #000000; stroke-opacity: 0; stroke-width: 1.5; stroke-linecap: square"/>
     <defs>
      <path id="mb511cdf1fb" d="M -0 5.656854 
L 5.656854 0 
L 0 -5.656854 
L -5.656854 -0 
z
" style="stroke: #5e527a; stroke-linejoin: miter"/>
     </defs>
     <g>
      <use xlink:href="#mb511cdf1fb" x="548.613594" y="278.457656" style="fill: #e7b850; stroke: #5e527a; stroke-linejoin: miter"/>
     </g>
    </g>
    <g id="text_14">
     <text style="font-size: 10px; font-family: 'JetBrains Mono', 'Berkeley Mono', 'IBM Plex Mono', 'DejaVu Sans Mono', 'Menlo', 'Monaco', 'Courier New', 'Bitstream Vera Sans Mono', 'Computer Modern Typewriter', 'Andale Mono', 'Nimbus Mono L', 'Courier', 'Fixed', 'Terminal', monospace; text-anchor: start; fill: #2a2340" x="562.613594" y="281.957656" transform="rotate(-0 562.613594 281.957656)">partial</text>
    </g>
    <g id="line2d_16">
     <path d="M 542.613594 293.188906 
L 548.613594 293.188906 
L 554.613594 293.188906 
" style="fill: none; stroke: #000000; stroke-opacity: 0; stroke-width: 1.5; stroke-linecap: square"/>
     <defs>
      <path id="me7cd120f51" d="M -2.5 5 
L 0 2.5 
L 2.5 5 
L 5 2.5 
L 2.5 0 
L 5 -2.5 
L 2.5 -5 
L 0 -2.5 
L -2.5 -5 
L -5 -2.5 
L -2.5 0 
L -5 2.5 
z
" style="stroke: #5e527a; stroke-linejoin: miter"/>
     </defs>
     <g>
      <use xlink:href="#me7cd120f51" x="548.613594" y="293.188906" style="fill: #ef7a6d; stroke: #5e527a; stroke-linejoin: miter"/>
     </g>
    </g>
    <g id="text_15">
     <text style="font-size: 10px; font-family: 'JetBrains Mono', 'Berkeley Mono', 'IBM Plex Mono', 'DejaVu Sans Mono', 'Menlo', 'Monaco', 'Courier New', 'Bitstream Vera Sans Mono', 'Computer Modern Typewriter', 'Andale Mono', 'Nimbus Mono L', 'Courier', 'Fixed', 'Terminal', monospace; text-anchor: start; fill: #2a2340" x="562.613594" y="296.688906" transform="rotate(-0 562.613594 296.688906)">fail</text>
    </g>
   </g>
  </g>
 </g>
 <defs>
  <clipPath id="p7c1899d72f">
   <rect x="92.060781" y="46.568594" width="521.695" height="261.2"/>
  </clipPath>
 </defs>
</svg>
